<?xml version="1.0" encoding="UTF-8" standalone="no"?>
<!-- Created with Inkscape (http://www.inkscape.org/) -->
<svg
   xmlns:svg="http://www.w3.org/2000/svg"
   xmlns="http://www.w3.org/2000/svg"
   version="1.0"
   width="725"
   height="377"
   id="svg2">
  <defs
     id="defs4">
    <marker
       refX="0"
       refY="0"
       orient="auto"
       style="overflow:visible"
       id="Dot_m">
      <path
         d="M -2.5,-1 C -2.5,1.76 -4.74,4 -7.5,4 C -10.26,4 -12.5,1.76 -12.5,-1 C -12.5,-3.76 -10.26,-6 -7.5,-6 C -4.74,-6 -2.5,-3.76 -2.5,-1 z "
         transform="matrix(0.4,0,0,0.4,2.96,0.4)"
         style="fill-rule:evenodd;stroke:black;stroke-width:1pt;marker-start:none;marker-end:none"
         id="path3757" />
    </marker>
    <marker
       refX="0"
       refY="0"
       orient="auto"
       style="overflow:visible"
       id="Dot_l">
      <path
         d="M -2.5,-1 C -2.5,1.76 -4.74,4 -7.5,4 C -10.26,4 -12.5,1.76 -12.5,-1 C -12.5,-3.76 -10.26,-6 -7.5,-6 C -4.74,-6 -2.5,-3.76 -2.5,-1 z "
         transform="matrix(0.8,0,0,0.8,5.92,0.8)"
         style="fill-rule:evenodd;stroke:black;stroke-width:1pt;marker-start:none;marker-end:none"
         id="path3760" />
    </marker>
    <marker
       refX="0"
       refY="0"
       orient="auto"
       style="overflow:visible"
       id="Arrow2Mend">
      <path
         d="M 8.7185878,4.0337352 L -2.2072895,0.016013256 L 8.7185884,-4.0017078 C 6.97309,-1.6296469 6.9831476,1.6157441 8.7185878,4.0337352 z "
         transform="scale(-0.6,-0.6)"
         style="font-size:12px;fill-rule:evenodd;stroke-width:0.625;stroke-linejoin:round"
         id="path3795" />
    </marker>
    <marker
       refX="0"
       refY="0"
       orient="auto"
       style="overflow:visible"
       id="Arrow2Lstart">
      <path
         d="M 8.7185878,4.0337352 L -2.2072895,0.016013256 L 8.7185884,-4.0017078 C 6.97309,-1.6296469 6.9831476,1.6157441 8.7185878,4.0337352 z "
         transform="matrix(1.1,0,0,1.1,1.1,0)"
         style="font-size:12px;fill-rule:evenodd;stroke-width:0.625;stroke-linejoin:round"
         id="path3804" />
    </marker>
    <marker
       refX="0"
       refY="0"
       orient="auto"
       style="overflow:visible"
       id="Tail">
      <g
         transform="scale(-1.2,-1.2)"
         id="g3774">
        <path
           d="M -3.8048674,-3.9585227 L 0.54352094,0"
           style="fill:none;fill-rule:evenodd;stroke:black;stroke-width:0.80000001;stroke-linecap:round;marker-start:none;marker-end:none"
           id="path3776" />
        <path
           d="M -1.2866832,-3.9585227 L 3.0617053,0"
           style="fill:none;fill-rule:evenodd;stroke:black;stroke-width:0.80000001;stroke-linecap:round;marker-start:none;marker-end:none"
           id="path3778" />
        <path
           d="M 1.3053582,-3.9585227 L 5.6537466,0"
           style="fill:none;fill-rule:evenodd;stroke:black;stroke-width:0.80000001;stroke-linecap:round;marker-start:none;marker-end:none"
           id="path3780" />
        <path
           d="M -3.8048674,4.1775838 L 0.54352094,0.21974226"
           style="fill:none;fill-rule:evenodd;stroke:black;stroke-width:0.80000001;stroke-linecap:round;marker-start:none;marker-end:none"
           id="path3782" />
        <path
           d="M -1.2866832,4.1775838 L 3.0617053,0.21974226"
           style="fill:none;fill-rule:evenodd;stroke:black;stroke-width:0.80000001;stroke-linecap:round;marker-start:none;marker-end:none"
           id="path3784" />
        <path
           d="M 1.3053582,4.1775838 L 5.6537466,0.21974226"
           style="fill:none;fill-rule:evenodd;stroke:black;stroke-width:0.80000001;stroke-linecap:round;marker-start:none;marker-end:none"
           id="path3786" />
      </g>
    </marker>
    <marker
       refX="0"
       refY="0"
       orient="auto"
       style="overflow:visible"
       id="Arrow1Sstart">
      <path
         d="M 0,0 L 5,-5 L -12.5,0 L 5,5 L 0,0 z "
         transform="matrix(0.2,0,0,0.2,1.2,0)"
         style="fill-rule:evenodd;stroke:black;stroke-width:1pt;marker-start:none"
         id="path3810" />
    </marker>
  </defs>
  <g
     transform="translate(-12.97688,-97.26406)"
     id="layer1">
    <path
       d="M 166.30943,157.8728 L 39.476407,303.00558 L 39.476407,157.8728 L 166.30943,157.8728 z "
       style="fill:#5E412F;fill-opacity:1;fill-rule:evenodd;stroke:black;stroke-width:0;stroke-linecap:butt;stroke-linejoin:miter;stroke-miterlimit:4;stroke-dasharray:none;stroke-opacity:1"
       id="path13598" />
    <path
       d="M 39.476407,417.92818 L 39.476407,309.42736 L 103.87122,235.53146 L 166.23217,417.92818 L 39.476407,417.92818 z "
       style="fill:#78C0A8;fill-opacity:1;fill-rule:evenodd;stroke:black;stroke-width:0;stroke-linecap:butt;stroke-linejoin:miter;stroke-miterlimit:4;stroke-dasharray:none;stroke-opacity:1"
       id="path13600" />
    <path
       d="M 172.70923,157.37939 L 109.9878,228.43344 L 299.5939,265.56163 L 299.5939,157.37939 L 172.70923,157.37939 z "
       style="fill:#F0A830;fill-opacity:1;fill-rule:evenodd;stroke:black;stroke-width:0;stroke-linecap:butt;stroke-linejoin:miter;stroke-miterlimit:4;stroke-dasharray:none;stroke-opacity:1"
       id="path13602" />
    <path
       d="M 108.61674,233.66693 L 170.97768,416.42413 L 298.5833,416.42413 L 298.5833,271.1556 L 108.61674,233.66693 z "
       style="fill:#FCEBB6;fill-opacity:1;fill-rule:evenodd;stroke:black;stroke-width:0;stroke-linecap:butt;stroke-linejoin:miter;stroke-miterlimit:4;stroke-dasharray:none;stroke-opacity:1"
       id="path13604" />
    <path
       d="M 617.84048,458.52492 L 425.10618,460.43113 L 533.43887,363.85187 L 617.84048,458.52492 z "
       style="fill:#5E412F;fill-opacity:1;fill-rule:evenodd;stroke:black;stroke-width:0;stroke-linecap:butt;stroke-linejoin:miter;stroke-miterlimit:4;stroke-dasharray:none;stroke-opacity:1"
       id="path14519" />
    <path
       d="M 500.67059,385.93704 L 418.72416,457.05115 L 320.70756,456.84944 L 417.59173,290.20342 L 500.67059,385.93704 z "
       style="fill:#78C0A8;fill-opacity:1;fill-rule:evenodd;stroke:black;stroke-width:0;stroke-linecap:butt;stroke-linejoin:miter;stroke-miterlimit:4;stroke-dasharray:none;stroke-opacity:1"
       id="path14521" />
    <path
       d="M 623.76402,456.15012 L 718.53896,455.54476 L 619.83353,289.45375 L 539.18841,361.56317 L 623.76402,456.15012 z "
       style="fill:#F0A830;fill-opacity:1;fill-rule:evenodd;stroke:black;stroke-width:0;stroke-linecap:butt;stroke-linejoin:miter;stroke-miterlimit:4;stroke-dasharray:none;stroke-opacity:1"
       id="path14523" />
    <path
       d="M 514.80835,118.31438 L 420.55498,286.85334 L 505.84641,381.76678 L 613.89758,284.66948 L 514.80835,118.31438 z "
       style="fill:#FCEB6;fill-opacity:1;fill-rule:evenodd;stroke:black;stroke-width:0;stroke-linecap:butt;stroke-linejoin:miter;stroke-miterlimit:4;stroke-dasharray:none;stroke-opacity:1"
       id="path14525" />
  </g>
</svg>
